<svg width="73" height="61" viewBox="0 0 73 61" fill="none" xmlns="http://www.w3.org/2000/svg">
<path d="M43.5 60C59.2735 60 72 46.7584 72 30.5C72 14.2416 59.2735 1 43.5 1C27.7265 1 15 14.2416 15 30.5C15 46.7584 27.7265 60 43.5 60Z" stroke="#1E1E1E" stroke-width="2"/>
<rect y="18" width="21" height="30" fill="#F8F8F8"/>
<path d="M58.7071 31.7071C59.0976 31.3166 59.0976 30.6834 58.7071 30.2929L52.3431 23.9289C51.9526 23.5384 51.3195 23.5384 50.9289 23.9289C50.5384 24.3195 50.5384 24.9526 50.9289 25.3431L56.5858 31L50.9289 36.6569C50.5384 37.0474 50.5384 37.6805 50.9289 38.0711C51.3195 38.4616 51.9526 38.4616 52.3431 38.0711L58.7071 31.7071ZM28 32H58V30H28V32Z" fill="black"/>
</svg>
